<svg xmlns="http://www.w3.org/2000/svg" width="640" height="640" viewBox="0 0 640 640" role="img" aria-label="Stylized globe illustration"><defs><linearGradient id="a" x1="0%" y1="0%" x2="100%" y2="100%"><stop stop-color="#2f6da8" offset="0"/><stop stop-color="#0d3558" offset="1"/></linearGradient><radialGradient id="b" cx="50%" cy="45%" r="60%"><stop stop-color="#d4af37" stop-opacity="0.85" offset="0"/><stop stop-color="#d4af37" stop-opacity="0" offset="1"/></radialGradient></defs><circle cx="320" cy="320" r="300" fill="url(#a)"/><circle cx="240" cy="180" r="180" fill="url(#b)"/><path d="M320 20a300 300 0 0 0 0 600c-74-40-124-140-124-300S246 60 320 20Z" fill="#ffffff22"/><path d="M140 330c40 10 90-30 130-20s50 70 90 80 80-40 110-20" fill="none" stroke="#d4af37" stroke-width="8" stroke-linecap="round" stroke-linejoin="round" stroke-dasharray="14 18"/><circle cx="470" cy="350" r="14" fill="#d4af37"/><circle cx="270" cy="310" r="10" fill="#d4af37"/><circle cx="200" cy="330" r="8" fill="#d4af37" opacity=".8"/><path d="M470 350 515 340 500 380Z" fill="#d4af37"/></svg>
