<svg xmlns="http://www.w3.org/2000/svg" width="320" height="120" viewBox="0 0 320 120" role="img" aria-label="Kobis Travels & Tours Ltd placeholder logo"><defs><linearGradient id="g" x1="0%" y1="0%" x2="100%" y2="100%"><stop stop-color="#2f6da8" offset="0"/><stop stop-color="#0d3558" offset="1"/></linearGradient></defs><rect width="320" height="120" rx="18" fill="url(#g)"/><path d="M78 82V38h10l15 19 15-19h10v44h-10V56l-15 18-15-18v26H78Zm106 1c-13 0-23-10-23-23s10-23 23-23 23 10 23 23-10 23-23 23Zm0-10c7 0 13-6 13-13s-6-13-13-13-13 6-13 13 6 13 13 13Zm65 9-12-18-12 18h-12l18-26-17-25h12l11 17 11-17h12l-17 25 18 26h-12Z" fill="#fff"/><text x="160" y="108" font-family="Poppins,Arial,sans-serif" font-size="18" text-anchor="middle" fill="#d4af37" font-weight="600">KOBIS TRAVELS</text></svg>
